<?xml version="1.0" encoding="UTF-8"?>
<svg width="32px" height="32px" viewBox="0 0 32 32" version="1.1" xmlns="http://www.w3.org/2000/svg" xmlns:xlink="http://www.w3.org/1999/xlink">
    <title>BD8D592B-6383-44D2-A7C7-FE6CBEB527A2</title>
    <g id="UX-391-&amp;-392-VidyoConnector-Sample-app-on-Windows-&amp;-MacOS-v8" stroke="none" stroke-width="1" fill="none" fill-rule="evenodd">
        <g id="Assets" transform="translate(-530.000000, -612.000000)">
            <g id="toolbar" transform="translate(0.000000, 596.000000)">
                <g id="icon_local_camera_active" transform="translate(530.000000, 16.000000)">
                    <rect id="Rectangle" x="0" y="0" width="32" height="32"></rect>
                    <path d="M11.2290458,17.5004604 C11.8663197,19.5287761 13.7613485,21 16,21 C18.2386515,21 20.1336803,19.5287761 20.7709542,17.5004604 L23.8594937,17.5005823 C23.1571532,21.2015846 19.9053791,24 16,24 C12.0946209,24 8.84284679,21.2015846 8.14050626,17.5005823 L11.2290458,17.5004604 Z M16,12.5 C17.9329966,12.5 19.5,14.0670034 19.5,16 C19.5,17.9329966 17.9329966,19.5 16,19.5 C14.0670034,19.5 12.5,17.9329966 12.5,16 C12.5,14.0670034 14.0670034,12.5 16,12.5 Z M16,13.5 C14.6192881,13.5 13.5,14.6192881 13.5,16 C13.5,17.3807119 14.6192881,18.5 16,18.5 C17.3807119,18.5 18.5,17.3807119 18.5,16 C18.5,14.6192881 17.3807119,13.5 16,13.5 Z M16,15 C16.5522847,15 17,15.4477153 17,16 C17,16.5522847 16.5522847,17 16,17 C15.4477153,17 15,16.5522847 15,16 C15,15.4477153 15.4477153,15 16,15 Z M16,8 C19.9057323,8 23.1577414,10.7989217 23.8596843,14.500422 L20.7712708,14.5005475 C20.134308,12.4717113 18.2390223,11 16,11 C13.7609777,11 11.865692,12.4717113 11.2287292,14.5005475 L8.14031575,14.500422 C8.84225855,10.7989217 12.0942677,8 16,8 Z" id="Combined-Shape" fill="#80B02F"></path>
                </g>
            </g>
        </g>
    </g>
</svg>