<?xml version="1.0" encoding="UTF-8"?>
<svg width="32px" height="32px" viewBox="0 0 32 32" version="1.1" xmlns="http://www.w3.org/2000/svg" xmlns:xlink="http://www.w3.org/1999/xlink">
    <title>011798B4-DBC6-49B9-B7AC-85C54D0222D0</title>
    <g id="UX-391-&amp;-392-VidyoConnector-Sample-app-on-Windows-&amp;-MacOS-v8" stroke="none" stroke-width="1" fill="none" fill-rule="evenodd">
        <g id="Assets" transform="translate(-242.000000, -612.000000)">
            <g id="toolbar" transform="translate(0.000000, 596.000000)">
                <g id="icon_network_service_active" transform="translate(242.000000, 16.000000)">
                    <rect id="Rectangle" x="0" y="0" width="32" height="32"></rect>
                    <path d="M21.6568157,10.3431529 C20.1458196,8.83212549 18.1368784,8 16,8 C13.8631216,8 11.854149,8.83212549 10.3431529,10.3431529 C8.83212549,11.854149 8,13.8631216 8,16 C8,18.1368784 8.83212549,20.145851 10.3431529,21.6568471 C11.8541804,23.1678431 13.8631216,24 16,24 C18.1368784,24 20.1458196,23.1678745 21.6568157,21.6568471 C23.1678745,20.145851 24,18.1368784 24,16 C24,13.8631216 23.1678745,11.854149 21.6568157,10.3431529 Z M20.2406275,19.2941176 C20.1230118,18.9625098 19.8849882,18.6874039 19.5791373,18.5220392 C19.6798118,17.8597333 19.7397647,17.1727373 19.7582745,16.4705882 L23.0427608,16.4705882 C22.9756549,17.4847686 22.6934902,18.4410039 22.2414118,19.2941176 L20.2406275,19.2941176 Z M8.95723922,16.4705882 L11.3750588,16.4705882 C11.5231686,16.8881255 11.8621804,17.2160627 12.286902,17.3483294 C12.3390118,18.0234667 12.4302431,18.6746039 12.5590275,19.2941176 L9.75858824,19.2941176 C9.3065098,18.4410039 9.02431373,17.4847686 8.95723922,16.4705882 Z M18.649098,18.3774745 C18.1514039,18.4708078 17.7450353,18.8259137 17.5789804,19.2941176 L16.4705882,19.2941176 L16.4705882,16.4705882 L18.8167843,16.4705882 C18.7986196,17.1239843 18.7425255,17.7624784 18.649098,18.3774745 Z M16.4705882,15.5294118 L16.4705882,12.7058824 L17.5763765,12.7058824 C17.7427451,13.1749333 18.1502745,13.5304784 18.6492235,13.6229961 C18.7425569,14.2378039 18.7986196,14.8761098 18.8167843,15.5294118 L16.4705882,15.5294118 Z M17.5763765,11.7647059 L16.4705882,11.7647059 L16.4705882,9.08345098 C17.0367373,9.34745098 17.5816471,10.0744784 18.0073098,11.1483608 C17.8128627,11.3096471 17.6624314,11.5220706 17.5763765,11.7647059 Z M15.5294118,9.08370196 L15.5294118,11.7647059 L13.773898,11.7647059 C14.2149647,10.3717647 14.8556235,9.39968627 15.5294118,9.08370196 Z M15.5294118,12.7058824 L15.5294118,15.5294118 L14.0367059,15.5294118 C13.9008627,15.1464157 13.6041725,14.8391529 13.2282039,14.6888157 C13.2831686,13.9960471 13.3814902,13.3318588 13.5216941,12.7058824 L15.5294118,12.7058824 Z M12.286902,14.651702 C11.8622118,14.7839373 11.5231373,15.1118745 11.3750588,15.5294118 L8.95723922,15.5294118 C9.0243451,14.5152 9.3065098,13.5589961 9.75858824,12.7058824 L12.5590275,12.7058824 C12.4302745,13.3254275 12.3390431,13.9765333 12.286902,14.651702 Z M13.2282039,17.3111843 C13.6041412,17.1608784 13.9008314,16.8536157 14.0367059,16.4705882 L15.5294118,16.4705882 L15.5294118,19.2941176 L13.5217255,19.2941176 C13.3814902,18.6681412 13.2831686,18.0039529 13.2282039,17.3111843 Z M15.5294118,20.2352941 L15.5294118,22.9162667 C14.8556235,22.6003137 14.2149647,21.6282353 13.773898,20.2352941 L15.5294118,20.2352941 Z M16.4705882,22.916549 L16.4705882,20.2352941 L17.5789804,20.2352941 C17.6647529,20.4771451 17.8145255,20.6889412 18.0080627,20.8500392 C17.5822745,21.9248 17.037051,22.6524235 16.4705882,22.916549 Z M19.7582745,15.5294118 C19.7397647,14.8267608 19.6797804,14.1393882 19.5789804,13.4767059 C19.8836706,13.3111843 20.1207216,13.0366118 20.2380235,12.7058824 L22.2414118,12.7058824 C22.6934902,13.5589961 22.9756549,14.5152 23.0427608,15.5294118 L19.7582745,15.5294118 Z M21.6434824,11.7647059 L20.2380235,11.7647059 C20.0432941,11.2156863 19.5158275,10.8169725 18.8912314,10.8239373 C18.6439843,10.1969569 18.3545412,9.66591373 18.033349,9.24018824 C19.4899765,9.67912157 20.7496784,10.5766902 21.6434824,11.7647059 L21.6434824,11.7647059 Z M13.9637961,9.24100392 C13.4920471,9.86748235 13.0907608,10.7212549 12.7905569,11.7647059 L10.3565176,11.7647059 C11.2497569,10.5774745 12.5083922,9.68028235 13.9637961,9.24100392 L13.9637961,9.24100392 Z M10.3565176,20.2352941 L12.7905882,20.2352941 C13.0907294,21.2787451 13.4920157,22.1325176 13.9637961,22.7589961 C12.5083922,22.3196863 11.2497569,21.4225255 10.3565176,20.2352941 L10.3565176,20.2352941 Z M18.0334431,22.7598118 C18.3546353,22.3340863 18.6441098,21.8030118 18.8913569,21.1760314 C19.5141333,21.1841569 20.0447059,20.7876706 20.2406275,20.2353255 L21.6434824,20.2353255 C20.7497098,21.4232784 19.4900078,22.3208471 18.0334431,22.7598118 Z" id="network-service" fill="#FFFFFF"></path>
                </g>
            </g>
        </g>
    </g>
</svg>