<?xml version="1.0" encoding="UTF-8"?>
<svg width="20px" height="20px" viewBox="0 0 20 20" version="1.1" xmlns="http://www.w3.org/2000/svg" xmlns:xlink="http://www.w3.org/1999/xlink">
    <title>6B841172-F803-4FD2-BCB6-E2F58C1A250D</title>
    <defs>
        <rect id="path-1" x="0" y="0" width="20" height="20" rx="4"></rect>
        <path d="M5.83333333,2.70833333 C4.11458333,2.70833333 2.70833333,4.11458333 2.70833333,5.83333333 C2.70833333,7.55208333 4.11458333,8.95833333 5.83333333,8.95833333 C7.55208333,8.95833333 8.95833333,7.55208333 8.95833333,5.83333333 C8.95833333,4.11458333 7.55208333,2.70833333 5.83333333,2.70833333 L5.83333333,2.70833333 Z M5.83333333,0.208333333 C2.73961038,0.208333333 0.208333333,2.73961038 0.208333333,5.83333333 C0.208333333,8.92705629 2.73961038,11.4583333 5.83333333,11.4583333 C8.92705629,11.4583333 11.4583333,8.92705629 11.4583333,5.83333333 C11.4583333,2.73961038 8.92705629,0.208333333 5.83333333,0.208333333 L5.83333333,0.208333333 Z M5.83333333,10.2083333 C3.42713592,10.2083333 1.45833333,8.23950446 1.45833333,5.83333333 C1.45833333,3.42716221 3.42713592,1.45833333 5.83333333,1.45833333 C8.23953075,1.45833333 10.2083333,3.42713592 10.2083333,5.83333333 C10.2083333,8.23953075 8.23953075,10.2083333 5.83333333,10.2083333 L5.83333333,10.2083333 Z" id="path-3"></path>
    </defs>
    <g id="UX-391-&amp;-392-VidyoConnector-Sample-app-on-Windows-&amp;-MacOS-v7" stroke="none" stroke-width="1" fill="none" fill-rule="evenodd">
        <g id="Assets" transform="translate(-48.000000, -71.000000)">
            <g id="start-recording" transform="translate(48.000000, 48.000000)">
                <g id="icon_start_recording" transform="translate(0.000000, 23.000000)">
                    <mask id="mask-2" fill="white">
                        <use xlink:href="#path-1"></use>
                    </mask>
                    <use id="bg" fill="#e84b40" xlink:href="#path-1"></use>
                    <g id="Icon" transform="translate(4.166667, 4.166667)">
                        <mask id="mask-4" fill="white">
                            <use xlink:href="#path-3"></use>
                        </mask>
                        <use id="ic_moderator_recording" fill="#FFFFFF" xlink:href="#path-3"></use>
                    </g>
                </g>
            </g>
        </g>
    </g>
</svg>