<?xml version="1.0" encoding="UTF-8"?>
<svg width="20px" height="20px" viewBox="0 0 20 20" version="1.1" xmlns="http://www.w3.org/2000/svg" xmlns:xlink="http://www.w3.org/1999/xlink">
    <title>6B6EEB77-285E-45E5-A390-217BCDCF31D7</title>
    <g id="UX-391-&amp;-392-VidyoConnector-Sample-app-on-Windows-&amp;-MacOS-v7" stroke="none" stroke-width="1" fill="none" fill-rule="evenodd">
        <g id="Assets" transform="translate(-232.000000, -72.000000)" fill="#4A4A4A">
            <g id="icon_soft_mute_camera" transform="translate(232.000000, 72.000000)">
                <path d="M11.9515892,4.16611974 C12.318246,4.16611974 12.6699077,4.31166107 12.9291634,4.57093632 C13.1884192,4.83021158 13.3339064,5.18188429 13.3339064,5.54854104 L13.3339064,14.451459 C13.3339064,14.8181073 13.1883826,15.1697639 12.9291329,15.4290332 C12.6698832,15.6883024 12.3182375,15.8338803 11.9515892,15.8338803 L3.04867129,15.8338803 C2.68206868,15.8338803 2.33048725,15.6882194 2.07129914,15.4289532 C1.81211102,15.1696869 1.66666667,14.8180616 1.66666667,14.451459 L1.66666667,5.54854104 C1.66666667,5.18192886 1.81216184,4.8303038 2.07136649,4.57104054 C2.33057115,4.31177727 2.68216328,4.16611974 3.04877546,4.16611974 L11.9515892,4.16611974 Z M18.3333333,5.55583339 L18.3333333,14.4441666 L17.2228126,14.4441666 L13.8891667,11.6668229 L13.8891667,8.33317708 L17.2228126,5.55583339 L18.3333333,5.55583339 Z" id="Combined-Shape"></path>
            </g>
        </g>
    </g>
</svg>