<?xml version="1.0" encoding="UTF-8"?>
<svg width="29px" height="30px" viewBox="0 0 29 30" version="1.1" xmlns="http://www.w3.org/2000/svg" xmlns:xlink="http://www.w3.org/1999/xlink">
    <title>icon_logs</title>
    <defs>
        <filter x="-2.0%" y="-2.3%" width="104.0%" height="104.7%" filterUnits="objectBoundingBox" id="filter-1">
            <feOffset dx="0" dy="2" in="SourceAlpha" result="shadowOffsetOuter1"></feOffset>
            <feGaussianBlur stdDeviation="2" in="shadowOffsetOuter1" result="shadowBlurOuter1"></feGaussianBlur>
            <feColorMatrix values="0 0 0 0 0   0 0 0 0 0   0 0 0 0 0  0 0 0 0.5 0" type="matrix" in="shadowBlurOuter1" result="shadowMatrixOuter1"></feColorMatrix>
            <feMerge>
                <feMergeNode in="shadowMatrixOuter1"></feMergeNode>
                <feMergeNode in="SourceGraphic"></feMergeNode>
            </feMerge>
        </filter>
    </defs>
    <g id="v8" stroke="none" stroke-width="1" fill="none" fill-rule="evenodd" opacity="0.5">
        <g id="B01" transform="translate(-180.000000, -309.000000)" fill="#FFFFFF">
            <g id="settings" filter="url(#filter-1)" transform="translate(150.000000, 44.000000)">
                <g id="tab-5" transform="translate(0.000000, 256.000000)">
                    <g id="Group-6" transform="translate(33.000000, 10.000000)">
                        <g id="icon_logs" transform="translate(1.500000, 1.000000)">
                            <path d="M17.875,3.66666667 C19.1381667,3.66666667 20.1666667,4.69425 20.1666667,5.95833333 L20.1666667,19.7083333 C20.1666667,20.9724167 19.1381667,22 17.875,22 L6.875,22 C5.61183333,22 4.58333333,20.9724167 4.58333333,19.7083333 L4.58333333,5.95833333 C4.58333333,4.69425 5.61183333,3.66666667 6.875,3.66666667 L17.875,3.66666667 Z M13.2916667,0 C14.5548333,0 15.5833333,1.02758333 15.5833333,2.29166667 C15.5833333,2.54466667 15.378,2.75 15.125,2.75 C14.872,2.75 14.6666667,2.54466667 14.6666667,2.29166667 C14.6666667,1.53358333 14.04975,0.916666667 13.2916667,0.916666667 L2.29166667,0.916666667 C1.53358333,0.916666667 0.916666667,1.53358333 0.916666667,2.29166667 L0.916666667,16.9583333 C0.916666667,17.7164167 1.53358333,18.3333333 2.29166667,18.3333333 L3.20833333,18.3333333 C3.46133333,18.3333333 3.66666667,18.5386667 3.66666667,18.7916667 C3.66666667,19.0446667 3.46133333,19.25 3.20833333,19.25 L2.29166667,19.25 C1.0285,19.25 0,18.2224167 0,16.9583333 L0,2.29166667 C0,1.02758333 1.0285,0 2.29166667,0 L13.2916667,0 Z M16.0416667,17.875 L8.70833333,17.875 C8.45533333,17.875 8.25,18.0803333 8.25,18.3333333 C8.25,18.5582222 8.41223868,18.7454486 8.62598171,18.784278 L8.70833333,18.7916667 L16.0416667,18.7916667 C16.2946667,18.7916667 16.5,18.5863333 16.5,18.3333333 C16.5,18.0803333 16.2946667,17.875 16.0416667,17.875 Z M16.0416667,14.2083333 L8.70833333,14.2083333 C8.45533333,14.2083333 8.25,14.4136667 8.25,14.6666667 C8.25,14.8915556 8.41223868,15.0787819 8.62598171,15.1176113 L8.70833333,15.125 L16.0416667,15.125 C16.2946667,15.125 16.5,14.9196667 16.5,14.6666667 C16.5,14.4136667 16.2946667,14.2083333 16.0416667,14.2083333 Z M16.0416667,10.5416667 L8.70833333,10.5416667 C8.45533333,10.5416667 8.25,10.747 8.25,11 C8.25,11.2248889 8.41223868,11.4121152 8.62598171,11.4509447 L8.70833333,11.4583333 L16.0416667,11.4583333 C16.2946667,11.4583333 16.5,11.253 16.5,11 C16.5,10.747 16.2946667,10.5416667 16.0416667,10.5416667 Z M16.0416667,6.875 L8.70833333,6.875 C8.45533333,6.875 8.25,7.08033333 8.25,7.33333333 C8.25,7.55822222 8.41223868,7.74544856 8.62598171,7.78427801 L8.70833333,7.79166667 L16.0416667,7.79166667 C16.2946667,7.79166667 16.5,7.58633333 16.5,7.33333333 C16.5,7.08033333 16.2946667,6.875 16.0416667,6.875 Z"></path>
                        </g>
                    </g>
                </g>
            </g>
        </g>
    </g>
</svg>