<?xml version="1.0" encoding="UTF-8"?>
<svg width="20px" height="20px" viewBox="0 0 20 20" version="1.1" xmlns="http://www.w3.org/2000/svg" xmlns:xlink="http://www.w3.org/1999/xlink">
    <title>6A41FA8F-7F1A-46A7-BE0D-D25580CB8496</title>
    <defs>
        <path d="M10.0011154,6.66666667 C13.8888042,6.66666667 17.1368719,8.17066409 17.9217526,10.1769994 C18.4298933,11.4759284 18.3242138,12.51881 18.3242138,12.51881 C18.3242147,12.9686513 17.9748666,13.3333333 17.5439217,13.3333333 L13.9025507,13.3333333 C13.4716404,13.3333333 13.1222959,12.9686416 13.1222682,12.5188364 L13.1223041,10.8898142 C13.1222906,10.4466623 13.4613226,10.0861689 13.8834083,10.0755597 C13.0238452,8.6217525 12.0383803,8.77714196 10.0011299,8.77714771 C7.96387506,8.77715804 7.04525596,8.62176054 6.18741698,10.0752716 C6.56654212,10.1140309 6.87994754,10.4636735 6.87996219,10.8898091 L6.87999625,12.5187946 C6.87993647,12.9686275 6.53058396,13.3333333 6.09969098,13.3333333 L2.45836201,13.3333333 C2.02738171,13.3333333 1.67805021,12.968661 1.67806648,12.5187827 C1.67806648,12.5187827 1.56049289,11.5061389 2.08051762,10.176963 C2.86544004,8.17065024 6.11351801,6.66666667 10.0011154,6.66666667 Z" id="path-1"></path>
    </defs>
    <g id="UX-391-&amp;-392-VidyoConnector-Sample-app-on-Windows-&amp;-MacOS-v7" stroke="none" stroke-width="1" fill="none" fill-rule="evenodd">
        <g id="Assets" transform="translate(-204.000000, -128.000000)">
            <g id="icon_disconnect" transform="translate(204.000000, 128.000000)">
                <mask id="mask-2" fill="white">
                    <use xlink:href="#path-1"></use>
                </mask>
                <use id="ic_end_call" fill="#E84B40" xlink:href="#path-1"></use>
            </g>
        </g>
    </g>
</svg>