<?xml version="1.0" encoding="UTF-8"?>
<svg width="21px" height="21px" viewBox="0 0 21 21" version="1.1" xmlns="http://www.w3.org/2000/svg" xmlns:xlink="http://www.w3.org/1999/xlink">
    <title>7DA24CEC-1283-4C07-9004-E851E7884663</title>
    <g id="UX-391-&amp;-392-VidyoConnector-Sample-app-on-Windows-&amp;-MacOS-v7" stroke="none" stroke-width="1" fill="none" fill-rule="evenodd">
        <g id="Assets" transform="translate(-260.000000, -100.000000)" fill="#E84B40">
            <g id="icon_hard_unmute_camera" transform="translate(260.000000, 100.000000)">
                <g id="Group-4-Copy-6">
                    <path d="M2.83791667,1.66666667 L18.3333333,17.1620833 L17.1620833,18.3333333 L13.3241667,14.4957292 C13.3025233,15.2390538 12.6948862,15.831062 11.95125,15.8333333 L11.95125,15.8333333 L3.04916667,15.8333333 C2.28595843,15.8329883 1.6674066,15.21425 1.66729167,14.4510417 L1.66729167,14.4510417 L1.66729167,5.54895833 C1.66950688,4.80533916 2.26148427,4.19768636 3.00479167,4.17604167 L3.00479167,4.17604167 L1.66666667,2.83791667 L2.83791667,1.66666667 Z M18.3333333,5.55625 L18.3333333,14.44375 L17.9583333,14.44375 L13.8885417,10.375 L13.8885417,8.33333333 L17.221875,5.55625 L18.3333333,5.55625 Z M11.95125,4.16666667 C12.7145158,4.16695417 13.3331609,4.78569252 13.3333333,5.54895833 L13.3333333,5.54895833 L13.3333333,9.819375 L7.68041667,4.16666667 Z" id="Combined-Shape"></path>
                </g>
                <path d="M15.4166454,9.33931104 C16.1995467,9.33931104 16.906927,9.6415754 17.4193043,10.1269854 C17.9417286,10.6219137 18.26223,11.3064697 18.26223,12.0614438 C18.5990748,12.5333267 18.8619437,12.6334615 19.0606789,12.7589785 C19.4398974,12.9984849 19.6270845,13.3333569 19.6610103,13.6975834 L19.6666241,13.8354154 L19.6666241,18.2796809 C19.6666241,18.6630163 19.5038016,19.0148834 19.2351764,19.2693705 C19.009976,19.4827182 18.7102981,19.6268873 18.3757557,19.659596 L18.2303614,19.6666667 L12.6029294,19.6666667 C12.2121744,19.6666667 11.856054,19.5137343 11.5975265,19.2688135 C11.363525,19.0471279 11.2091491,18.7511247 11.1742114,18.4224302 L11.1666667,18.2796809 L11.1666667,13.8354154 C11.1666667,13.4520799 11.3294892,13.1002128 11.5981144,12.8457258 C11.7463356,12.7053057 11.92682,12.5948534 12.1282733,12.5264241 L12.2831184,12.4831698 L12.5742344,11.9315817 C12.60869,11.228162 12.9216833,10.5933779 13.4139865,10.1269854 C13.9263638,9.6415754 14.6337441,9.33931104 15.4166454,9.33931104 Z M15.7380124,15.7949661 C15.6565411,15.7177827 15.5441353,15.6705624 15.1051338,15.7949661 C15.0337729,15.8625712 14.9853103,15.9545351 14.9853103,16.0575481 C14.9853103,16.1608822 15.0329183,16.2534682 15.1045027,16.321285 C15.1857166,16.3982245 15.2981971,16.4445339 15.4215731,16.4445339 C15.5441353,16.4445339 15.6565411,16.3973135 15.7380124,16.3201302 C15.8093733,16.2525251 15.8578359,16.1605611 15.8578359,16.0575481 C15.8578359,15.9545351 15.8093733,15.8625712 15.7380124,15.7949661 Z M15.4215731,11.1842817 C15.1548797,11.1842817 14.9124433,11.28466 14.7374043,11.4504864 C14.572412,11.6067949 14.467902,11.8220657 14.467902,12.4484296 L14.467902,12.4484296 L16.3752442,12.0614438 L16.3667389,11.9439251 C16.3387275,11.7519466 16.2432355,11.5807435 16.1057419,11.4504864 C15.9307029,11.28466 15.6882665,11.1842817 15.4215731,11.1842817 Z" id="lock_grey" stroke="#FFFFFF"></path>
            </g>
        </g>
    </g>
</svg>