<?xml version="1.0" encoding="UTF-8"?>
<svg width="21px" height="21px" viewBox="0 0 21 21" version="1.1" xmlns="http://www.w3.org/2000/svg" xmlns:xlink="http://www.w3.org/1999/xlink">
    <title>4394BEB8-C3E5-4CB3-81EC-886A56F7ECCF</title>
    <g id="UX-391-&amp;-392-VidyoConnector-Sample-app-on-Windows-&amp;-MacOS-v7" stroke="none" stroke-width="1" fill="none" fill-rule="evenodd">
        <g id="Assets" transform="translate(-204.000000, -100.000000)" fill="#E84B40">
            <g id="icon_hard_unmute_microphone" transform="translate(204.000000, 100.000000)">
                <g id="Group-5-Copy-2">
                    <path d="M2.83791667,1.66756838 L7.14302083,5.97267254 L12.2871875,11.1168392 L18.3333333,17.162985 L17.1620833,18.334235 L13.4392708,14.6113184 C12.6699481,15.0450483 11.826576,15.3317065 10.9522917,15.4566309 L10.9522917,15.4566309 L10.9522917,18.3337142 L9.0471875,18.3337142 L9.0471875,15.456735 C5.92364583,15.03111 3.33333333,12.5577767 3.33333333,9.56236004 L3.33333333,9.56236004 L4.95270833,9.56236004 C4.95270833,12.1937142 7.3715625,14.0356934 10,14.0356934 C10.8072919,14.0305019 11.6038451,13.8502086 12.3346875,13.5072559 L12.3346875,13.5072559 L10.8804167,12.052985 C10.5954959,12.1430791 10.2988084,12.1905027 10,12.1937142 C8.48584471,12.2521933 7.20902264,11.0762061 7.14302083,9.56236004 L7.14302083,9.56236004 L7.14302083,8.31517254 L1.66666667,2.83881838 L2.83791667,1.66756838 Z M16.6666667,9.56236004 C16.6559042,10.5447053 16.3726047,11.5047718 15.8483333,12.3355892 L15.8483333,12.3355892 L14.6964583,11.1837142 C14.9243254,10.6733586 15.0437892,10.1212643 15.0472917,9.56236004 L15.0472917,9.56236004 Z M10,1.66808921 C11.5154129,1.60629648 12.7942364,2.78417371 12.8569792,4.29954754 L12.8569792,4.29954754 L12.8479167,9.33517254 L7.22135417,3.70861004 C7.57329552,2.47397324 8.71662432,1.63436057 10,1.66808921 Z" id="Combined-Shape"></path>
                </g>
                <path d="M15.4166454,9.33931104 C16.1995467,9.33931104 16.906927,9.6415754 17.4193043,10.1269854 C17.9417286,10.6219137 18.26223,11.3064697 18.26223,12.0614438 C18.5990748,12.5333267 18.8619437,12.6334615 19.0606789,12.7589785 C19.4398974,12.9984849 19.6270845,13.3333569 19.6610103,13.6975834 L19.6666241,13.8354154 L19.6666241,18.2796809 C19.6666241,18.6630163 19.5038016,19.0148834 19.2351764,19.2693705 C19.009976,19.4827182 18.7102981,19.6268873 18.3757557,19.659596 L18.2303614,19.6666667 L12.6029294,19.6666667 C12.2121744,19.6666667 11.856054,19.5137343 11.5975265,19.2688135 C11.363525,19.0471279 11.2091491,18.7511247 11.1742114,18.4224302 L11.1666667,18.2796809 L11.1666667,13.8354154 C11.1666667,13.4520799 11.3294892,13.1002128 11.5981144,12.8457258 C11.7463356,12.7053057 11.92682,12.5948534 12.1282733,12.5264241 L12.2831184,12.4831698 L12.5742344,11.9315817 C12.60869,11.228162 12.9216833,10.5933779 13.4139865,10.1269854 C13.9263638,9.6415754 14.6337441,9.33931104 15.4166454,9.33931104 Z M15.7380124,15.7949661 C15.6565411,15.7177827 15.5441353,15.6705624 15.1051338,15.7949661 C15.0337729,15.8625712 14.9853103,15.9545351 14.9853103,16.0575481 C14.9853103,16.1608822 15.0329183,16.2534682 15.1045027,16.321285 C15.1857166,16.3982245 15.2981971,16.4445339 15.4215731,16.4445339 C15.5441353,16.4445339 15.6565411,16.3973135 15.7380124,16.3201302 C15.8093733,16.2525251 15.8578359,16.1605611 15.8578359,16.0575481 C15.8578359,15.9545351 15.8093733,15.8625712 15.7380124,15.7949661 Z M15.4215731,11.1842817 C15.1548797,11.1842817 14.9124433,11.28466 14.7374043,11.4504864 C14.572412,11.6067949 14.467902,11.8220657 14.467902,12.4484296 L14.467902,12.4484296 L16.3752442,12.0614438 L16.3667389,11.9439251 C16.3387275,11.7519466 16.2432355,11.5807435 16.1057419,11.4504864 C15.9307029,11.28466 15.6882665,11.1842817 15.4215731,11.1842817 Z" id="lock_grey" stroke="#FFFFFF"></path>
            </g>
        </g>
    </g>
</svg>