<?xml version="1.0" encoding="UTF-8"?>
<svg width="20px" height="20px" viewBox="0 0 20 20" version="1.1" xmlns="http://www.w3.org/2000/svg" xmlns:xlink="http://www.w3.org/1999/xlink">
    <title>DE1B85DB-295C-4672-84E3-9BB1B10CAC54</title>
    <g id="UX-391-&amp;-392-VidyoConnector-Sample-app-on-Windows-&amp;-MacOS-v7" stroke="none" stroke-width="1" fill="none" fill-rule="evenodd">
        <g id="Assets" transform="translate(-176.000000, -72.000000)" fill="#4A4A4A">
            <g id="icon_soft_mute_microphone" transform="translate(176.000000, 72.000000)">
                <path d="M4.95299128,9.56265189 C4.95299128,12.1938042 7.37176409,14.0356421 10,14.0356421 C12.6329231,14.0356421 15.0469046,12.1938042 15.0469046,9.56265189 L15.0469046,9.56265189 L16.6661554,9.56265189 C16.6661554,12.5578388 14.0755207,15.0311908 10.9522186,15.4564707 L10.9522186,15.4564707 L10.9522186,18.3333333 L9.04726058,18.3333333 L9.04726058,15.4565748 C5.92395847,15.0309825 3.33384464,12.5578388 3.33384464,9.56265189 L3.33384464,9.56265189 Z M10,1.66898651 C11.5152752,1.6072569 12.7939656,2.78501156 12.85676,4.30024302 L12.85676,4.30024302 L12.8471775,9.56265189 C12.7857996,11.0746551 11.5121415,12.2516764 10,12.1938042 C8.48596084,12.2522789 7.2092367,11.0763818 7.14323995,9.56265189 L7.14323995,9.56265189 L7.14323995,4.30024302 C7.20738614,2.78563834 8.48523855,1.60865553 10,1.66898651 Z" id="Combined-Shape"></path>
            </g>
        </g>
    </g>
</svg>