<?xml version="1.0" encoding="UTF-8"?>
<svg width="24px" height="24px" viewBox="0 0 24 24" version="1.1" xmlns="http://www.w3.org/2000/svg" xmlns:xlink="http://www.w3.org/1999/xlink">
    <title>827B9F7B-A4B5-4F32-ABCC-7240E7126289</title>
    <g id="UX-391-&amp;-392-VidyoConnector-Sample-app-on-Windows-&amp;-MacOS-v6" stroke="none" stroke-width="1" fill="none" fill-rule="evenodd">
        <g id="B15" transform="translate(-80.000000, -80.000000)">
            <g id="icon_audio_video_disabled" transform="translate(80.000000, 80.000000)">
                <rect id="Rectangle" x="0" y="0" width="24" height="24"></rect>
                <path d="M7.89784188,16.784 C9.24196581,16.784 10.3751581,17.7321847 10.7021709,19.0138305 L10.7021709,19.0138305 L22.7628205,19.0138305 C23.1699402,19.0138305 23.5,19.3541837 23.5,19.774 C23.5,20.1938163 23.1699402,20.5341695 22.7628205,20.5341695 L22.7628205,20.5341695 L10.7022692,20.5341695 C10.3752564,21.8159166 9.2420641,22.764 7.89794017,22.764 C6.55381624,22.764 5.42062393,21.8159166 5.09361111,20.5341695 L5.09361111,20.5341695 L1.23717949,20.5341695 C0.830059829,20.5341695 0.5,20.1938163 0.5,19.774 C0.5,19.3541837 0.830059829,19.0138305 1.23717949,19.0138305 L1.23717949,19.0138305 L5.09351282,19.0138305 C5.42052564,17.7321847 6.55371795,16.784 7.89784188,16.784 Z M15.0448823,9.608 C16.3890005,9.608 17.5221879,10.5560834 17.8491994,11.8378305 L17.8491994,11.8378305 L22.7627254,11.8378305 C23.1698433,11.8378305 23.5,12.1781837 23.5,12.598 C23.5,13.0178163 23.1699416,13.3581695 22.7628237,13.3581695 L22.7628237,13.3581695 L17.8492977,13.3581695 C17.5222862,14.6398153 16.3890988,15.588 15.0449806,15.588 C13.7008624,15.588 12.5676749,14.6398153 12.2406635,13.3581695 L12.2406635,13.3581695 L1.23717634,13.3581695 C0.830058419,13.3581695 0.5,13.0178163 0.5,12.598 C0.5,12.1781837 0.830058419,11.8378305 1.23717634,11.8378305 L1.23717634,11.8378305 L12.2405652,11.8378305 C12.5675766,10.5560834 13.7007641,9.608 15.0448823,9.608 Z M7.89784188,1.236 C9.24196581,1.236 10.3751581,2.18408339 10.7021709,3.46583051 L10.7021709,3.46583051 L22.7628205,3.46583051 C23.1699402,3.46583051 23.5,3.80618373 23.5,4.226 C23.5,4.64581627 23.1699402,4.98616949 22.7628205,4.98616949 L22.7628205,4.98616949 L10.7022692,4.98616949 C10.3752564,6.26791661 9.2420641,7.216 7.89794017,7.216 C6.55381624,7.216 5.42062393,6.26791661 5.09361111,4.98616949 L5.09361111,4.98616949 L1.23717949,4.98616949 C0.830059829,4.98616949 0.5,4.64581627 0.5,4.226 C0.5,3.80618373 0.830059829,3.46583051 1.23717949,3.46583051 L1.23717949,3.46583051 L5.09351282,3.46583051 C5.42052564,2.18408339 6.55371795,1.236 7.89784188,1.236 Z" id="icon_audio_video" fill="#777777"></path>
            </g>
        </g>
    </g>
</svg>