<?xml version="1.0" encoding="UTF-8"?>
<svg width="31px" height="30px" viewBox="0 0 31 30" version="1.1" xmlns="http://www.w3.org/2000/svg" xmlns:xlink="http://www.w3.org/1999/xlink">
    <title>Combined Shape</title>
    <defs>
        <filter x="-2.0%" y="-2.3%" width="104.0%" height="104.7%" filterUnits="objectBoundingBox" id="filter-1">
            <feOffset dx="0" dy="2" in="SourceAlpha" result="shadowOffsetOuter1"></feOffset>
            <feGaussianBlur stdDeviation="2" in="shadowOffsetOuter1" result="shadowBlurOuter1"></feGaussianBlur>
            <feColorMatrix values="0 0 0 0 0   0 0 0 0 0   0 0 0 0 0  0 0 0 0.5 0" type="matrix" in="shadowBlurOuter1" result="shadowMatrixOuter1"></feColorMatrix>
            <feMerge>
                <feMergeNode in="shadowMatrixOuter1"></feMergeNode>
                <feMergeNode in="SourceGraphic"></feMergeNode>
            </feMerge>
        </filter>
    </defs>
    <g id="v8" stroke="none" stroke-width="1" fill="none" fill-rule="evenodd" opacity="0.5">
        <g id="B01" transform="translate(-179.000000, -373.000000)" fill="#FFFFFF">
            <g id="settings" filter="url(#filter-1)" transform="translate(150.000000, 44.000000)">
                <g id="tab-6" transform="translate(0.000000, 320.000000)">
                    <g id="Group-7" transform="translate(33.000000, 10.000000)">
                        <g id="icon_voice_processing" transform="translate(0.000000, 1.021552)">
                            <path d="M16.4657964,11.3139898 L16.618341,12.4088957 C17.0227379,12.4367735 17.4144835,12.5227023 17.784173,12.6591807 L17.784173,12.6591807 L18.3718473,11.7215216 L19.852341,12.6491043 L19.2643308,13.5875471 C19.549883,13.8624071 19.7978728,14.1781323 19.9985038,14.5268295 L19.9985038,14.5268295 L21.0506412,14.1864733 L21.5886616,15.8486209 L20.5363003,16.189201 C20.5791247,16.5959491 20.5626107,16.9963155 20.4935318,17.3811756 L20.4935318,17.3811756 L21.5181272,17.7966565 L20.8616539,19.4158117 L19.8350992,18.9995471 C19.6122443,19.3294911 19.3440458,19.6279746 19.0372774,19.8846972 L19.0372774,19.8846972 L19.5559847,20.8627176 L18.012402,21.6813079 L17.4942545,20.7044071 C17.3052112,20.7584275 17.1099542,20.8005242 16.9094351,20.828402 C16.709028,20.8562799 16.5099644,20.869659 16.3131399,20.8690992 L16.3131399,20.8690992 L16.0817761,21.9502901 L14.3731654,21.5853028 L14.6048092,20.5024326 C14.2398219,20.3392519 13.8998575,20.1257455 13.5954402,19.8692468 L13.5954402,19.8692468 L12.7216539,20.5501832 L11.6476845,19.1722443 L12.5197354,18.4924835 C12.3477659,18.1409313 12.2223715,17.7606616 12.1526209,17.3577201 L12.1526209,17.3577201 L11.0474148,17.3176387 L11.1106158,15.5717455 L12.2158779,15.611715 C12.3134504,15.221313 12.4654351,14.849944 12.6648346,14.5074606 L12.6648346,14.5074606 L11.8428295,13.7652265 L13.0134758,12.4682901 L13.8348092,13.2096845 C14.1531654,12.9774249 14.5067328,12.78743 14.8878982,12.650112 L14.8878982,12.650112 L14.7353537,11.5552061 L16.4657964,11.3139898 Z M18.5351959,16.3260712 C18.3650738,15.1073384 17.2357964,14.2540407 16.0172316,14.4239949 C14.7985547,14.5936132 13.945201,15.7232824 14.1152112,16.9419033 C14.2848855,18.1604682 15.4144427,19.013598 16.6331756,18.8439237 C17.8516845,18.6739135 18.7047583,17.5445802 18.5351959,16.3260712 Z M8.65417303,0 L8.65417303,1.54425445 C9.2080916,1.66091603 9.73368448,1.85533333 10.219028,2.11541476 L10.219028,2.11541476 L11.2127226,0.931333333 L13.0824427,2.50010687 L12.0879084,3.68519593 C12.43,4.12066158 12.7120814,4.60522137 12.922341,5.12633588 L12.922341,5.12633588 L14.4437557,4.85802545 L14.8677455,7.26167939 L13.3460509,7.52998982 C13.3272977,8.10087023 13.2272621,8.65159796 13.0571959,9.17080916 L13.0571959,9.17080916 L14.3947735,9.94310433 L13.1744173,12.0568957 L11.8341527,11.2829211 C11.4623919,11.6967226 11.0333639,12.0576794 10.5596641,12.3536438 L10.5596641,12.3536438 L11.0887277,13.8070992 L8.79524173,14.6419796 L8.26696183,13.1904275 C7.99467684,13.2290534 7.71656997,13.249374 7.43381679,13.249374 C7.15106361,13.249374 6.87301272,13.2289415 6.60072774,13.1904275 L6.60072774,13.1904275 L6.07239186,14.6419796 L3.77879389,13.8072112 L4.30785751,12.3538117 C3.83410178,12.0578473 3.40507379,11.6968346 3.03342494,11.283201 L3.03342494,11.283201 L1.69310433,12.0569517 L0.472692112,9.94321628 L1.81038168,9.1709771 C1.64031552,8.65159796 1.54022392,8.10098219 1.52147074,7.5300458 L1.52147074,7.5300458 L0,7.26173537 L0.423765903,4.85808142 L1.94518066,5.12639186 C2.1554402,4.60533333 2.43752163,4.12071756 2.77955725,3.68525191 L2.77955725,3.68525191 L1.78513486,2.50016285 L3.65485496,0.931333333 L4.64849364,2.11541476 C5.13389313,1.85533333 5.65948601,1.66091603 6.21346056,1.54425445 L6.21346056,1.54425445 L6.21346056,0 L8.65417303,0 Z M19.450743,3.1215369 L20.8011399,3.4012112 L20.6240204,4.25719593 C20.910916,4.38214249 21.1811858,4.5476743 21.4255369,4.75071247 L21.4255369,4.75071247 L22.1106158,4.20961323 L22.9654809,5.29169975 L22.2802901,5.8330229 C22.4237099,6.1223257 22.5214504,6.42321628 22.5761425,6.72707379 L22.5761425,6.72707379 L23.4486412,6.75299237 L23.4076641,8.13171501 L22.5338219,8.10574046 C22.4594809,8.41110941 22.3430433,8.70578626 22.1865802,8.98008651 L22.1865802,8.98008651 L22.8390789,9.56132316 L21.9217405,10.5912366 L21.2696896,10.0106718 C21.144743,10.1026463 21.0117913,10.1874555 20.8709466,10.2631399 C20.7302137,10.3389364 20.586458,10.4034249 20.440799,10.4569975 L20.440799,10.4569975 L20.5665293,11.3209873 L19.2015776,11.5203308 L19.0755115,10.6552774 C18.760626,10.6349567 18.4503308,10.5703003 18.1544784,10.4641628 L18.1544784,10.4641628 L17.6949415,11.2082443 L16.5214402,10.4835318 L16.9799695,9.74079389 C16.7560509,9.52779135 16.5586667,9.28092112 16.3963257,9.00180662 L16.3963257,9.00180662 L15.5673232,9.27588295 L15.1344885,7.96623919 L15.9634911,7.69205089 C15.9283919,7.37626972 15.9388041,7.05998473 15.9922646,6.75164885 L15.9922646,6.75164885 L15.180112,6.42814249 L15.6901425,5.14660051 L16.5016234,5.46960305 C16.6734249,5.21030534 16.8830127,4.97250382 17.1272519,4.76616285 L17.1272519,4.76616285 L16.7135064,3.99761832 L17.9279847,3.34355216 L18.3417303,4.11198473 C18.6487786,4.02157761 18.9620967,3.97740967 19.2732875,3.97696183 L19.2732875,3.97696183 L19.450743,3.1215369 Z M7.43370483,4.21638677 C5.71501781,4.21638677 4.31675827,5.61470229 4.31675827,7.33333333 C4.31675827,9.05207634 5.71501781,10.4502799 7.43370483,10.4502799 C9.15244784,10.4502799 10.5506514,9.05207634 10.5506514,7.33333333 C10.5506514,5.61470229 9.15239186,4.21638677 7.43370483,4.21638677 Z M20.836799,6.48445802 C20.3760865,5.629257 19.3056438,5.30798982 18.4506667,5.76864631 C17.5952417,6.22896692 17.2741425,7.29968957 17.734855,8.15489059 C18.1951756,9.00997964 19.2656743,9.3310229 20.1210992,8.87047837 C20.9761883,8.40987786 21.2970636,7.33971501 20.836799,6.48445802 Z" id="Combined-Shape"></path>
                        </g>
                    </g>
                </g>
            </g>
        </g>
    </g>
</svg>