<?xml version="1.0" encoding="UTF-8"?>
<svg width="42px" height="42px" viewBox="0 0 42 42" version="1.1" xmlns="http://www.w3.org/2000/svg" xmlns:xlink="http://www.w3.org/1999/xlink">
    <!-- Generator: sketchtool 54.1 (76490) - https://sketchapp.com -->
    <title>9290207A-3AA4-4A86-AC63-F10DBBC87E98</title>
    <desc>Created with sketchtool.</desc>
    <g id="SoftRoom_Screens" stroke="none" stroke-width="1" fill="none" fill-rule="evenodd">
        <g id="MC_001-Home-screen" transform="translate(-49.000000, -817.000000)" fill="#ffffff">
            <g id="Menu">
                <g id="6-tab" transform="translate(0.000000, 788.000000)">
                    <g id="Icon" transform="translate(46.000000, 26.000000)">
                        <path d="M39.438798,18.845125 L39.2395076,18.7726267 L38.4591554,16.8712859 L38.5438084,16.6762053 C40.9075805,11.2037445 40.7443319,11.040662 40.3521115,10.6440083 L37.1992039,7.50401357 C37.07018,7.37354759 36.8442368,7.28188132 36.6490351,7.28188132 C36.4715516,7.28188132 35.9339521,7.28188132 31.2772802,9.43441552 L31.0908619,9.52020773 L29.1695872,8.73045568 L29.0920517,8.53537502 C26.9021288,3 26.6778513,3 26.1331343,3 L21.6804474,3 C21.1375476,3 20.8902518,3 18.8594886,8.54495902 L18.7831646,8.74668664 L16.8718847,9.54200358 L16.6891009,9.46471331 C13.5372534,8.10780521 11.6963915,7.42007633 11.2166407,7.42007633 C11.0220448,7.42007633 10.7948901,7.50942389 10.6652605,7.63927156 L7.50932416,10.788232 C7.10953184,11.1916872 6.94325459,11.3600255 9.43075026,16.7184058 L9.52236933,16.9171964 L8.74035133,18.8162184 L8.54938993,18.8916538 C3,21.0805144 3,21.2942993 3,21.8642378 L3,26.3181673 C3,26.8899607 3,27.1272419 8.56059623,29.1616765 L8.75928089,29.2334019 L9.54069315,31.1263954 L9.45679733,31.3202394 C7.09287383,36.7951734 7.24325026,36.943107 7.64546556,37.3519726 L10.7936786,40.496141 C10.9255798,40.6253703 11.153946,40.7176549 11.3491476,40.7176549 C11.5254197,40.7176549 12.0613534,40.7176549 16.7209026,38.5662028 L16.9079266,38.4768552 L18.8304128,39.2703172 L18.9049195,39.4666345 C21.096054,45 21.3213915,45 21.8668657,45 L26.3206127,45 C26.8801705,45 27.1121712,45 29.1441459,39.4514856 L29.2198641,39.249758 L31.1340213,38.4593876 L31.3161994,38.5354413 C34.4656239,39.8959047 36.3054258,40.582397 36.7821478,40.582397 C36.9750779,40.582397 37.2038984,40.496141 37.3357996,40.3625834 L40.4970362,37.206976 C40.8945569,36.8018204 41.0602285,36.6364192 38.5680382,31.2834492 L38.4758134,31.0823399 L39.2554084,29.1912014 L39.4418268,29.1168482 C45,26.9159303 45,26.701527 45,26.1309702 L45,21.679514 C45,21.1077206 45,20.8716761 39.438798,18.845125 Z M24.0011753,31 C20.1408034,31 17,27.8577851 17,23.9977521 C17,20.1383186 20.1408034,17 24.0011753,17 C27.8599312,17 31,20.138918 31,23.9977521 C31,27.8571857 27.8603719,31 24.0011753,31 Z" id="ic_settings"></path>
                    </g>
                </g>
            </g>
        </g>
    </g>
</svg>